%
M48
M72
T01C0.0120
T02C0.0160
T03C0.0354
T04C0.0394
T05C0.0400
T06C0.0906
T07C0.1102
T08C0.1772
T09C0.1969
T10C0.2362
%
T01
X36602Y27316
X19791Y30072
T02
X779Y624
X14752Y7611
X15835Y7631
X16799Y7670
X16799Y8458
X16819Y9383
X15815Y9403
X14752Y9403
X14791Y8536
X15421Y10505
X15992Y10485
X17454Y12654
X16292Y13148
X15832Y13590
X15832Y14590
X15047Y14735
X14497Y15668
X14477Y16770
X13946Y16731
X12272Y18030
X11229Y17912
X11288Y19277
X11328Y19985
X10383Y21166
X10929Y22076
X11465Y22611
X12150Y22568
X13094Y23198
X13512Y23340
X12311Y24206
X12114Y24698
X11051Y23477
X10299Y23016
X9969Y23016
X9969Y22576
X10299Y22576
X9535Y23596
X8728Y23458
X12130Y21663
X14555Y20013
X14965Y19773
X15777Y20649
X16820Y21358
X14950Y21890
X18453Y20288
X17401Y19133
X16406Y18733
X14536Y18798
X12883Y18981
X11032Y16160
X9812Y16160
X11387Y14191
X13970Y13520
X16968Y15392
X16228Y16332
X19012Y17188
X19133Y18109
X20228Y18181
X20858Y16777
X20897Y15771
X19913Y15435
X22202Y15761
X22511Y16881
X24412Y15902
X25101Y16473
X26679Y17886
X26719Y18545
X27839Y19330
X27459Y17529
X27841Y17285
X27676Y16710
X27639Y15376
X29782Y15290
X30632Y15090
X31032Y15490
X32482Y14640
X32084Y13979
X33131Y12792
X31990Y11532
X29313Y11532
X28632Y11390
X28532Y10790
X27232Y11190
X27782Y11890
X29706Y13979
X32732Y15590
X32532Y16340
X32682Y16890
X31043Y16861
X30582Y16901
X30091Y17009
X30571Y18711
X30832Y19243
X30932Y19940
X31178Y20388
X31502Y20690
X32132Y20040
X32832Y20890
X33082Y21340
X33432Y21690
X33782Y22040
X34132Y22390
X34482Y22740
X34782Y22240
X35132Y22590
X35382Y22140
X35882Y22640
X36232Y22990
X36788Y22947
X36432Y22140
X36432Y21440
X37882Y21890
X38945Y21181
X36603Y20457
X37172Y19040
X36882Y18140
X36882Y17290
X36932Y16590
X37382Y16090
X38882Y16540
X38682Y17040
X38882Y17940
X39792Y19030
X42625Y18227
X43472Y19650
X45044Y19592
X45232Y20190
X47388Y20911
X49432Y20790
X54147Y19862
X46382Y14990
X45632Y16490
X43132Y16240
X42632Y14990
X42097Y13464
X43282Y13140
X43532Y12640
X44082Y12540
X44582Y12240
X45132Y12693
X44032Y9890
X44782Y9590
X45882Y9040
X46832Y9040
X42589Y7952
X39125Y8956
X34882Y9576
X34314Y9640
X34232Y8990
X33379Y8843
X33982Y7821
X34382Y10140
X38182Y12940
X38532Y13290
X38782Y13740
X38182Y14040
X37782Y13640
X38882Y14440
X39735Y13464
X32482Y17740
X32732Y18740
X34332Y21090
X34782Y21540
X32902Y22080
X33059Y22907
X32143Y21411
X35532Y22990
X34843Y24219
X34382Y24240
X38531Y24048
X38835Y24403
X40632Y24043
X41330Y24004
X40976Y25840
X42393Y27435
X45287Y28025
X46209Y28458
X44657Y29659
X47629Y31667
X47629Y32887
X48771Y33301
X50109Y33931
X51881Y35053
X47964Y37592
X42294Y35289
X42311Y34757
X41802Y34462
X40936Y35407
X39952Y34521
X39893Y33734
X37787Y33773
X37039Y33261
X37570Y34324
X37039Y35328
X37787Y36017
X36133Y36411
X33692Y35820
X40303Y37985
X42924Y33005
X43492Y33182
X44086Y33183
X41409Y31667
X45442Y24410
X58968Y25624
X58810Y14088
X54226Y12090
X49482Y13840
X53850Y860
X27511Y9526
X24732Y10640
X22427Y8266
X23507Y6901
X18650Y7021
X17902Y8497
X18728Y10151
X19873Y13270
X22132Y13540
X24491Y13685
X22508Y18143
X22511Y19086
X24022Y19470
X27246Y22640
X28016Y22598
X26386Y23719
X27626Y24140
X24532Y23090
X23626Y25590
X10402Y29875
X936Y38931
T03
X18551Y38694
X19929Y38694
X21307Y38694
X22685Y38694
X26937Y38733
X28315Y38733
X29693Y38733
X31071Y38733
X55874Y21017
X57252Y21017
X6402Y6253
X5614Y6253
X5614Y5269
X6402Y5269
T04
X20362Y28911
X24339Y28871
X29339Y28871
X31346Y28871
X31327Y34403
X29319Y34403
X24319Y34403
X20343Y34442
X54831Y39166
X59122Y27513
X59122Y12277
X54752Y505
T05
X50932Y6590
X49932Y6590
X48932Y6590
X47932Y6590
X46932Y6590
X45932Y6590
X44932Y6590
X43932Y6590
X41932Y6590
X40932Y6590
X39932Y6590
X38932Y6590
X37932Y6590
X36932Y6590
X35932Y6590
X34932Y6590
X32932Y6590
X31932Y6590
X30932Y6590
X29932Y6590
X28932Y6590
X27932Y6590
X39982Y15590
X40982Y15590
X40982Y16590
X39982Y16590
X39982Y17590
X40982Y17590
X51932Y17590
X52932Y17590
X52932Y16590
X51932Y16590
X51932Y15590
X52932Y15590
X52932Y14590
X51932Y14590
X51932Y13590
X52932Y13590
X52932Y12590
X51932Y12590
X51932Y11590
X52932Y11590
X52932Y10590
X51932Y10590
X51932Y9590
X52932Y9590
X52932Y8590
X51932Y8590
X51932Y18590
X52932Y18590
X52932Y19590
X51932Y19590
X51932Y20590
X52932Y20590
X52932Y21590
X51932Y21590
X51932Y22590
X52932Y22590
X52932Y23590
X51932Y23590
X51932Y24590
X52932Y24590
X52932Y25590
X51932Y25590
X48932Y25590
X47932Y25590
X46932Y25590
X45932Y25590
X44932Y25590
X43932Y25590
X42932Y25590
X41932Y25590
X39932Y25590
X38932Y25590
X37932Y25590
X36932Y25590
X35932Y25590
X34932Y25590
X33932Y25590
X32932Y25590
X31332Y25590
X30332Y25590
X29332Y25590
X28332Y25590
X27332Y25590
X26332Y25590
X25332Y25590
X24332Y25590
X21603Y23073
X20603Y23073
X19603Y23073
X19603Y22073
X20603Y22073
X21603Y22073
X35630Y28542
X35630Y29442
X35630Y30342
X38705Y29458
X38705Y28458
X38705Y27458
X16056Y32967
X15056Y32967
X14056Y32967
X13056Y32967
T06
X4547Y8131
X4547Y3391
T07
X27154Y4521
X54713Y4521
X54713Y32080
X27154Y32080
X11348Y35387
X6188Y35407
X4496Y32987
X4476Y27827
T08
X3531Y23025
X3531Y15151
T09
X45657Y35623
T10
X14555Y36804
X14555Y3340
M30
