G75*
G70*
%OFA0B0*%
%FSLAX24Y24*%
%IPPOS*%
%LPD*%
%AMOC8*
5,1,8,0,0,1.08239X$1,22.5*
%
%ADD10C,0.0000*%
%ADD11R,0.1102X0.0394*%
%ADD12R,0.0472X0.0472*%
%ADD13R,0.2441X0.2126*%
%ADD14R,0.0630X0.0394*%
%ADD15R,0.0880X0.0480*%
%ADD16R,0.0866X0.1417*%
%ADD17C,0.0283*%
%ADD18R,0.0591X0.0118*%
%ADD19R,0.0118X0.0591*%
%ADD20R,0.0460X0.0630*%
%ADD21C,0.0083*%
%ADD22R,0.0217X0.0472*%
%ADD23R,0.0220X0.0500*%
%ADD24R,0.0500X0.0220*%
%ADD25R,0.0630X0.0157*%
%ADD26R,0.0618X0.0744*%
%ADD27R,0.0440X0.1130*%
%ADD28R,0.0157X0.0260*%
%ADD29R,0.0630X0.0710*%
%ADD30R,0.0710X0.0630*%
%ADD31R,0.0591X0.0472*%
%ADD32R,0.0669X0.0709*%
%ADD33R,0.0551X0.0394*%
%ADD34R,0.0236X0.0177*%
%ADD35R,0.2953X0.0709*%
%ADD36R,0.0984X0.0394*%
%ADD37R,0.1240X0.0701*%
%ADD38R,0.0551X0.1024*%
%ADD39R,0.1024X0.0551*%
%ADD40R,0.0709X0.0787*%
%ADD41R,0.1130X0.0440*%
%ADD42R,0.0709X0.0669*%
%ADD43R,0.0630X0.1535*%
%ADD44R,0.0276X0.1614*%
%ADD45R,0.1614X0.0276*%
%ADD46R,0.1535X0.0630*%
%ADD47R,0.0500X0.0250*%
D10*
X000382Y000190D02*
X000382Y039560D01*
X059437Y039560D01*
X059437Y000190D01*
X000382Y000190D01*
X013374Y003340D02*
X013376Y003409D01*
X013382Y003477D01*
X013392Y003545D01*
X013406Y003612D01*
X013424Y003679D01*
X013445Y003744D01*
X013471Y003808D01*
X013500Y003870D01*
X013532Y003930D01*
X013568Y003989D01*
X013608Y004045D01*
X013650Y004099D01*
X013696Y004150D01*
X013745Y004199D01*
X013796Y004245D01*
X013850Y004287D01*
X013906Y004327D01*
X013964Y004363D01*
X014025Y004395D01*
X014087Y004424D01*
X014151Y004450D01*
X014216Y004471D01*
X014283Y004489D01*
X014350Y004503D01*
X014418Y004513D01*
X014486Y004519D01*
X014555Y004521D01*
X014624Y004519D01*
X014692Y004513D01*
X014760Y004503D01*
X014827Y004489D01*
X014894Y004471D01*
X014959Y004450D01*
X015023Y004424D01*
X015085Y004395D01*
X015145Y004363D01*
X015204Y004327D01*
X015260Y004287D01*
X015314Y004245D01*
X015365Y004199D01*
X015414Y004150D01*
X015460Y004099D01*
X015502Y004045D01*
X015542Y003989D01*
X015578Y003930D01*
X015610Y003870D01*
X015639Y003808D01*
X015665Y003744D01*
X015686Y003679D01*
X015704Y003612D01*
X015718Y003545D01*
X015728Y003477D01*
X015734Y003409D01*
X015736Y003340D01*
X015734Y003271D01*
X015728Y003203D01*
X015718Y003135D01*
X015704Y003068D01*
X015686Y003001D01*
X015665Y002936D01*
X015639Y002872D01*
X015610Y002810D01*
X015578Y002749D01*
X015542Y002691D01*
X015502Y002635D01*
X015460Y002581D01*
X015414Y002530D01*
X015365Y002481D01*
X015314Y002435D01*
X015260Y002393D01*
X015204Y002353D01*
X015146Y002317D01*
X015085Y002285D01*
X015023Y002256D01*
X014959Y002230D01*
X014894Y002209D01*
X014827Y002191D01*
X014760Y002177D01*
X014692Y002167D01*
X014624Y002161D01*
X014555Y002159D01*
X014486Y002161D01*
X014418Y002167D01*
X014350Y002177D01*
X014283Y002191D01*
X014216Y002209D01*
X014151Y002230D01*
X014087Y002256D01*
X014025Y002285D01*
X013964Y002317D01*
X013906Y002353D01*
X013850Y002393D01*
X013796Y002435D01*
X013745Y002481D01*
X013696Y002530D01*
X013650Y002581D01*
X013608Y002635D01*
X013568Y002691D01*
X013532Y002749D01*
X013500Y002810D01*
X013471Y002872D01*
X013445Y002936D01*
X013424Y003001D01*
X013406Y003068D01*
X013392Y003135D01*
X013382Y003203D01*
X013376Y003271D01*
X013374Y003340D01*
X026603Y004521D02*
X026605Y004568D01*
X026611Y004614D01*
X026621Y004660D01*
X026634Y004705D01*
X026652Y004748D01*
X026673Y004790D01*
X026697Y004830D01*
X026725Y004867D01*
X026756Y004902D01*
X026790Y004935D01*
X026826Y004964D01*
X026865Y004990D01*
X026906Y005013D01*
X026949Y005032D01*
X026993Y005048D01*
X027038Y005060D01*
X027084Y005068D01*
X027131Y005072D01*
X027177Y005072D01*
X027224Y005068D01*
X027270Y005060D01*
X027315Y005048D01*
X027359Y005032D01*
X027402Y005013D01*
X027443Y004990D01*
X027482Y004964D01*
X027518Y004935D01*
X027552Y004902D01*
X027583Y004867D01*
X027611Y004830D01*
X027635Y004790D01*
X027656Y004748D01*
X027674Y004705D01*
X027687Y004660D01*
X027697Y004614D01*
X027703Y004568D01*
X027705Y004521D01*
X027703Y004474D01*
X027697Y004428D01*
X027687Y004382D01*
X027674Y004337D01*
X027656Y004294D01*
X027635Y004252D01*
X027611Y004212D01*
X027583Y004175D01*
X027552Y004140D01*
X027518Y004107D01*
X027482Y004078D01*
X027443Y004052D01*
X027402Y004029D01*
X027359Y004010D01*
X027315Y003994D01*
X027270Y003982D01*
X027224Y003974D01*
X027177Y003970D01*
X027131Y003970D01*
X027084Y003974D01*
X027038Y003982D01*
X026993Y003994D01*
X026949Y004010D01*
X026906Y004029D01*
X026865Y004052D01*
X026826Y004078D01*
X026790Y004107D01*
X026756Y004140D01*
X026725Y004175D01*
X026697Y004212D01*
X026673Y004252D01*
X026652Y004294D01*
X026634Y004337D01*
X026621Y004382D01*
X026611Y004428D01*
X026605Y004474D01*
X026603Y004521D01*
X002645Y015151D02*
X002647Y015210D01*
X002653Y015269D01*
X002663Y015327D01*
X002676Y015385D01*
X002694Y015442D01*
X002715Y015497D01*
X002740Y015551D01*
X002769Y015603D01*
X002801Y015652D01*
X002836Y015700D01*
X002874Y015745D01*
X002915Y015788D01*
X002959Y015828D01*
X003005Y015864D01*
X003054Y015898D01*
X003105Y015928D01*
X003158Y015955D01*
X003213Y015978D01*
X003268Y015997D01*
X003326Y016013D01*
X003384Y016025D01*
X003442Y016033D01*
X003501Y016037D01*
X003561Y016037D01*
X003620Y016033D01*
X003678Y016025D01*
X003736Y016013D01*
X003794Y015997D01*
X003849Y015978D01*
X003904Y015955D01*
X003957Y015928D01*
X004008Y015898D01*
X004057Y015864D01*
X004103Y015828D01*
X004147Y015788D01*
X004188Y015745D01*
X004226Y015700D01*
X004261Y015652D01*
X004293Y015603D01*
X004322Y015551D01*
X004347Y015497D01*
X004368Y015442D01*
X004386Y015385D01*
X004399Y015327D01*
X004409Y015269D01*
X004415Y015210D01*
X004417Y015151D01*
X004415Y015092D01*
X004409Y015033D01*
X004399Y014975D01*
X004386Y014917D01*
X004368Y014860D01*
X004347Y014805D01*
X004322Y014751D01*
X004293Y014699D01*
X004261Y014650D01*
X004226Y014602D01*
X004188Y014557D01*
X004147Y014514D01*
X004103Y014474D01*
X004057Y014438D01*
X004008Y014404D01*
X003957Y014374D01*
X003904Y014347D01*
X003849Y014324D01*
X003794Y014305D01*
X003736Y014289D01*
X003678Y014277D01*
X003620Y014269D01*
X003561Y014265D01*
X003501Y014265D01*
X003442Y014269D01*
X003384Y014277D01*
X003326Y014289D01*
X003268Y014305D01*
X003213Y014324D01*
X003158Y014347D01*
X003105Y014374D01*
X003054Y014404D01*
X003005Y014438D01*
X002959Y014474D01*
X002915Y014514D01*
X002874Y014557D01*
X002836Y014602D01*
X002801Y014650D01*
X002769Y014699D01*
X002740Y014751D01*
X002715Y014805D01*
X002694Y014860D01*
X002676Y014917D01*
X002663Y014975D01*
X002653Y015033D01*
X002647Y015092D01*
X002645Y015151D01*
X002645Y023025D02*
X002647Y023084D01*
X002653Y023143D01*
X002663Y023201D01*
X002676Y023259D01*
X002694Y023316D01*
X002715Y023371D01*
X002740Y023425D01*
X002769Y023477D01*
X002801Y023526D01*
X002836Y023574D01*
X002874Y023619D01*
X002915Y023662D01*
X002959Y023702D01*
X003005Y023738D01*
X003054Y023772D01*
X003105Y023802D01*
X003158Y023829D01*
X003213Y023852D01*
X003268Y023871D01*
X003326Y023887D01*
X003384Y023899D01*
X003442Y023907D01*
X003501Y023911D01*
X003561Y023911D01*
X003620Y023907D01*
X003678Y023899D01*
X003736Y023887D01*
X003794Y023871D01*
X003849Y023852D01*
X003904Y023829D01*
X003957Y023802D01*
X004008Y023772D01*
X004057Y023738D01*
X004103Y023702D01*
X004147Y023662D01*
X004188Y023619D01*
X004226Y023574D01*
X004261Y023526D01*
X004293Y023477D01*
X004322Y023425D01*
X004347Y023371D01*
X004368Y023316D01*
X004386Y023259D01*
X004399Y023201D01*
X004409Y023143D01*
X004415Y023084D01*
X004417Y023025D01*
X004415Y022966D01*
X004409Y022907D01*
X004399Y022849D01*
X004386Y022791D01*
X004368Y022734D01*
X004347Y022679D01*
X004322Y022625D01*
X004293Y022573D01*
X004261Y022524D01*
X004226Y022476D01*
X004188Y022431D01*
X004147Y022388D01*
X004103Y022348D01*
X004057Y022312D01*
X004008Y022278D01*
X003957Y022248D01*
X003904Y022221D01*
X003849Y022198D01*
X003794Y022179D01*
X003736Y022163D01*
X003678Y022151D01*
X003620Y022143D01*
X003561Y022139D01*
X003501Y022139D01*
X003442Y022143D01*
X003384Y022151D01*
X003326Y022163D01*
X003268Y022179D01*
X003213Y022198D01*
X003158Y022221D01*
X003105Y022248D01*
X003054Y022278D01*
X003005Y022312D01*
X002959Y022348D01*
X002915Y022388D01*
X002874Y022431D01*
X002836Y022476D01*
X002801Y022524D01*
X002769Y022573D01*
X002740Y022625D01*
X002715Y022679D01*
X002694Y022734D01*
X002676Y022791D01*
X002663Y022849D01*
X002653Y022907D01*
X002647Y022966D01*
X002645Y023025D01*
X013374Y036804D02*
X013376Y036873D01*
X013382Y036941D01*
X013392Y037009D01*
X013406Y037076D01*
X013424Y037143D01*
X013445Y037208D01*
X013471Y037272D01*
X013500Y037334D01*
X013532Y037394D01*
X013568Y037453D01*
X013608Y037509D01*
X013650Y037563D01*
X013696Y037614D01*
X013745Y037663D01*
X013796Y037709D01*
X013850Y037751D01*
X013906Y037791D01*
X013964Y037827D01*
X014025Y037859D01*
X014087Y037888D01*
X014151Y037914D01*
X014216Y037935D01*
X014283Y037953D01*
X014350Y037967D01*
X014418Y037977D01*
X014486Y037983D01*
X014555Y037985D01*
X014624Y037983D01*
X014692Y037977D01*
X014760Y037967D01*
X014827Y037953D01*
X014894Y037935D01*
X014959Y037914D01*
X015023Y037888D01*
X015085Y037859D01*
X015145Y037827D01*
X015204Y037791D01*
X015260Y037751D01*
X015314Y037709D01*
X015365Y037663D01*
X015414Y037614D01*
X015460Y037563D01*
X015502Y037509D01*
X015542Y037453D01*
X015578Y037394D01*
X015610Y037334D01*
X015639Y037272D01*
X015665Y037208D01*
X015686Y037143D01*
X015704Y037076D01*
X015718Y037009D01*
X015728Y036941D01*
X015734Y036873D01*
X015736Y036804D01*
X015734Y036735D01*
X015728Y036667D01*
X015718Y036599D01*
X015704Y036532D01*
X015686Y036465D01*
X015665Y036400D01*
X015639Y036336D01*
X015610Y036274D01*
X015578Y036213D01*
X015542Y036155D01*
X015502Y036099D01*
X015460Y036045D01*
X015414Y035994D01*
X015365Y035945D01*
X015314Y035899D01*
X015260Y035857D01*
X015204Y035817D01*
X015146Y035781D01*
X015085Y035749D01*
X015023Y035720D01*
X014959Y035694D01*
X014894Y035673D01*
X014827Y035655D01*
X014760Y035641D01*
X014692Y035631D01*
X014624Y035625D01*
X014555Y035623D01*
X014486Y035625D01*
X014418Y035631D01*
X014350Y035641D01*
X014283Y035655D01*
X014216Y035673D01*
X014151Y035694D01*
X014087Y035720D01*
X014025Y035749D01*
X013964Y035781D01*
X013906Y035817D01*
X013850Y035857D01*
X013796Y035899D01*
X013745Y035945D01*
X013696Y035994D01*
X013650Y036045D01*
X013608Y036099D01*
X013568Y036155D01*
X013532Y036213D01*
X013500Y036274D01*
X013471Y036336D01*
X013445Y036400D01*
X013424Y036465D01*
X013406Y036532D01*
X013392Y036599D01*
X013382Y036667D01*
X013376Y036735D01*
X013374Y036804D01*
X026603Y032080D02*
X026605Y032127D01*
X026611Y032173D01*
X026621Y032219D01*
X026634Y032264D01*
X026652Y032307D01*
X026673Y032349D01*
X026697Y032389D01*
X026725Y032426D01*
X026756Y032461D01*
X026790Y032494D01*
X026826Y032523D01*
X026865Y032549D01*
X026906Y032572D01*
X026949Y032591D01*
X026993Y032607D01*
X027038Y032619D01*
X027084Y032627D01*
X027131Y032631D01*
X027177Y032631D01*
X027224Y032627D01*
X027270Y032619D01*
X027315Y032607D01*
X027359Y032591D01*
X027402Y032572D01*
X027443Y032549D01*
X027482Y032523D01*
X027518Y032494D01*
X027552Y032461D01*
X027583Y032426D01*
X027611Y032389D01*
X027635Y032349D01*
X027656Y032307D01*
X027674Y032264D01*
X027687Y032219D01*
X027697Y032173D01*
X027703Y032127D01*
X027705Y032080D01*
X027703Y032033D01*
X027697Y031987D01*
X027687Y031941D01*
X027674Y031896D01*
X027656Y031853D01*
X027635Y031811D01*
X027611Y031771D01*
X027583Y031734D01*
X027552Y031699D01*
X027518Y031666D01*
X027482Y031637D01*
X027443Y031611D01*
X027402Y031588D01*
X027359Y031569D01*
X027315Y031553D01*
X027270Y031541D01*
X027224Y031533D01*
X027177Y031529D01*
X027131Y031529D01*
X027084Y031533D01*
X027038Y031541D01*
X026993Y031553D01*
X026949Y031569D01*
X026906Y031588D01*
X026865Y031611D01*
X026826Y031637D01*
X026790Y031666D01*
X026756Y031699D01*
X026725Y031734D01*
X026697Y031771D01*
X026673Y031811D01*
X026652Y031853D01*
X026634Y031896D01*
X026621Y031941D01*
X026611Y031987D01*
X026605Y032033D01*
X026603Y032080D01*
X044673Y035623D02*
X044675Y035685D01*
X044681Y035748D01*
X044691Y035809D01*
X044705Y035870D01*
X044722Y035930D01*
X044743Y035989D01*
X044769Y036046D01*
X044797Y036101D01*
X044829Y036155D01*
X044865Y036206D01*
X044903Y036256D01*
X044945Y036302D01*
X044989Y036346D01*
X045037Y036387D01*
X045086Y036425D01*
X045138Y036459D01*
X045192Y036490D01*
X045248Y036518D01*
X045306Y036542D01*
X045365Y036563D01*
X045425Y036579D01*
X045486Y036592D01*
X045548Y036601D01*
X045610Y036606D01*
X045673Y036607D01*
X045735Y036604D01*
X045797Y036597D01*
X045859Y036586D01*
X045919Y036571D01*
X045979Y036553D01*
X046037Y036531D01*
X046094Y036505D01*
X046149Y036475D01*
X046202Y036442D01*
X046253Y036406D01*
X046301Y036367D01*
X046347Y036324D01*
X046390Y036279D01*
X046430Y036231D01*
X046467Y036181D01*
X046501Y036128D01*
X046532Y036074D01*
X046558Y036018D01*
X046582Y035960D01*
X046601Y035900D01*
X046617Y035840D01*
X046629Y035778D01*
X046637Y035717D01*
X046641Y035654D01*
X046641Y035592D01*
X046637Y035529D01*
X046629Y035468D01*
X046617Y035406D01*
X046601Y035346D01*
X046582Y035286D01*
X046558Y035228D01*
X046532Y035172D01*
X046501Y035118D01*
X046467Y035065D01*
X046430Y035015D01*
X046390Y034967D01*
X046347Y034922D01*
X046301Y034879D01*
X046253Y034840D01*
X046202Y034804D01*
X046149Y034771D01*
X046094Y034741D01*
X046037Y034715D01*
X045979Y034693D01*
X045919Y034675D01*
X045859Y034660D01*
X045797Y034649D01*
X045735Y034642D01*
X045673Y034639D01*
X045610Y034640D01*
X045548Y034645D01*
X045486Y034654D01*
X045425Y034667D01*
X045365Y034683D01*
X045306Y034704D01*
X045248Y034728D01*
X045192Y034756D01*
X045138Y034787D01*
X045086Y034821D01*
X045037Y034859D01*
X044989Y034900D01*
X044945Y034944D01*
X044903Y034990D01*
X044865Y035040D01*
X044829Y035091D01*
X044797Y035145D01*
X044769Y035200D01*
X044743Y035257D01*
X044722Y035316D01*
X044705Y035376D01*
X044691Y035437D01*
X044681Y035498D01*
X044675Y035561D01*
X044673Y035623D01*
X054162Y032080D02*
X054164Y032127D01*
X054170Y032173D01*
X054180Y032219D01*
X054193Y032264D01*
X054211Y032307D01*
X054232Y032349D01*
X054256Y032389D01*
X054284Y032426D01*
X054315Y032461D01*
X054349Y032494D01*
X054385Y032523D01*
X054424Y032549D01*
X054465Y032572D01*
X054508Y032591D01*
X054552Y032607D01*
X054597Y032619D01*
X054643Y032627D01*
X054690Y032631D01*
X054736Y032631D01*
X054783Y032627D01*
X054829Y032619D01*
X054874Y032607D01*
X054918Y032591D01*
X054961Y032572D01*
X055002Y032549D01*
X055041Y032523D01*
X055077Y032494D01*
X055111Y032461D01*
X055142Y032426D01*
X055170Y032389D01*
X055194Y032349D01*
X055215Y032307D01*
X055233Y032264D01*
X055246Y032219D01*
X055256Y032173D01*
X055262Y032127D01*
X055264Y032080D01*
X055262Y032033D01*
X055256Y031987D01*
X055246Y031941D01*
X055233Y031896D01*
X055215Y031853D01*
X055194Y031811D01*
X055170Y031771D01*
X055142Y031734D01*
X055111Y031699D01*
X055077Y031666D01*
X055041Y031637D01*
X055002Y031611D01*
X054961Y031588D01*
X054918Y031569D01*
X054874Y031553D01*
X054829Y031541D01*
X054783Y031533D01*
X054736Y031529D01*
X054690Y031529D01*
X054643Y031533D01*
X054597Y031541D01*
X054552Y031553D01*
X054508Y031569D01*
X054465Y031588D01*
X054424Y031611D01*
X054385Y031637D01*
X054349Y031666D01*
X054315Y031699D01*
X054284Y031734D01*
X054256Y031771D01*
X054232Y031811D01*
X054211Y031853D01*
X054193Y031896D01*
X054180Y031941D01*
X054170Y031987D01*
X054164Y032033D01*
X054162Y032080D01*
X058925Y027513D02*
X058927Y027540D01*
X058933Y027567D01*
X058942Y027593D01*
X058955Y027617D01*
X058971Y027640D01*
X058990Y027659D01*
X059012Y027676D01*
X059036Y027690D01*
X059061Y027700D01*
X059088Y027707D01*
X059115Y027710D01*
X059143Y027709D01*
X059170Y027704D01*
X059196Y027696D01*
X059220Y027684D01*
X059243Y027668D01*
X059264Y027650D01*
X059281Y027629D01*
X059296Y027605D01*
X059307Y027580D01*
X059315Y027554D01*
X059319Y027527D01*
X059319Y027499D01*
X059315Y027472D01*
X059307Y027446D01*
X059296Y027421D01*
X059281Y027397D01*
X059264Y027376D01*
X059243Y027358D01*
X059221Y027342D01*
X059196Y027330D01*
X059170Y027322D01*
X059143Y027317D01*
X059115Y027316D01*
X059088Y027319D01*
X059061Y027326D01*
X059036Y027336D01*
X059012Y027350D01*
X058990Y027367D01*
X058971Y027386D01*
X058955Y027409D01*
X058942Y027433D01*
X058933Y027459D01*
X058927Y027486D01*
X058925Y027513D01*
X054634Y039166D02*
X054636Y039193D01*
X054642Y039220D01*
X054651Y039246D01*
X054664Y039270D01*
X054680Y039293D01*
X054699Y039312D01*
X054721Y039329D01*
X054745Y039343D01*
X054770Y039353D01*
X054797Y039360D01*
X054824Y039363D01*
X054852Y039362D01*
X054879Y039357D01*
X054905Y039349D01*
X054929Y039337D01*
X054952Y039321D01*
X054973Y039303D01*
X054990Y039282D01*
X055005Y039258D01*
X055016Y039233D01*
X055024Y039207D01*
X055028Y039180D01*
X055028Y039152D01*
X055024Y039125D01*
X055016Y039099D01*
X055005Y039074D01*
X054990Y039050D01*
X054973Y039029D01*
X054952Y039011D01*
X054930Y038995D01*
X054905Y038983D01*
X054879Y038975D01*
X054852Y038970D01*
X054824Y038969D01*
X054797Y038972D01*
X054770Y038979D01*
X054745Y038989D01*
X054721Y039003D01*
X054699Y039020D01*
X054680Y039039D01*
X054664Y039062D01*
X054651Y039086D01*
X054642Y039112D01*
X054636Y039139D01*
X054634Y039166D01*
X058925Y012277D02*
X058927Y012304D01*
X058933Y012331D01*
X058942Y012357D01*
X058955Y012381D01*
X058971Y012404D01*
X058990Y012423D01*
X059012Y012440D01*
X059036Y012454D01*
X059061Y012464D01*
X059088Y012471D01*
X059115Y012474D01*
X059143Y012473D01*
X059170Y012468D01*
X059196Y012460D01*
X059220Y012448D01*
X059243Y012432D01*
X059264Y012414D01*
X059281Y012393D01*
X059296Y012369D01*
X059307Y012344D01*
X059315Y012318D01*
X059319Y012291D01*
X059319Y012263D01*
X059315Y012236D01*
X059307Y012210D01*
X059296Y012185D01*
X059281Y012161D01*
X059264Y012140D01*
X059243Y012122D01*
X059221Y012106D01*
X059196Y012094D01*
X059170Y012086D01*
X059143Y012081D01*
X059115Y012080D01*
X059088Y012083D01*
X059061Y012090D01*
X059036Y012100D01*
X059012Y012114D01*
X058990Y012131D01*
X058971Y012150D01*
X058955Y012173D01*
X058942Y012197D01*
X058933Y012223D01*
X058927Y012250D01*
X058925Y012277D01*
X054162Y004521D02*
X054164Y004568D01*
X054170Y004614D01*
X054180Y004660D01*
X054193Y004705D01*
X054211Y004748D01*
X054232Y004790D01*
X054256Y004830D01*
X054284Y004867D01*
X054315Y004902D01*
X054349Y004935D01*
X054385Y004964D01*
X054424Y004990D01*
X054465Y005013D01*
X054508Y005032D01*
X054552Y005048D01*
X054597Y005060D01*
X054643Y005068D01*
X054690Y005072D01*
X054736Y005072D01*
X054783Y005068D01*
X054829Y005060D01*
X054874Y005048D01*
X054918Y005032D01*
X054961Y005013D01*
X055002Y004990D01*
X055041Y004964D01*
X055077Y004935D01*
X055111Y004902D01*
X055142Y004867D01*
X055170Y004830D01*
X055194Y004790D01*
X055215Y004748D01*
X055233Y004705D01*
X055246Y004660D01*
X055256Y004614D01*
X055262Y004568D01*
X055264Y004521D01*
X055262Y004474D01*
X055256Y004428D01*
X055246Y004382D01*
X055233Y004337D01*
X055215Y004294D01*
X055194Y004252D01*
X055170Y004212D01*
X055142Y004175D01*
X055111Y004140D01*
X055077Y004107D01*
X055041Y004078D01*
X055002Y004052D01*
X054961Y004029D01*
X054918Y004010D01*
X054874Y003994D01*
X054829Y003982D01*
X054783Y003974D01*
X054736Y003970D01*
X054690Y003970D01*
X054643Y003974D01*
X054597Y003982D01*
X054552Y003994D01*
X054508Y004010D01*
X054465Y004029D01*
X054424Y004052D01*
X054385Y004078D01*
X054349Y004107D01*
X054315Y004140D01*
X054284Y004175D01*
X054256Y004212D01*
X054232Y004252D01*
X054211Y004294D01*
X054193Y004337D01*
X054180Y004382D01*
X054170Y004428D01*
X054164Y004474D01*
X054162Y004521D01*
X054555Y000505D02*
X054557Y000532D01*
X054563Y000559D01*
X054572Y000585D01*
X054585Y000609D01*
X054601Y000632D01*
X054620Y000651D01*
X054642Y000668D01*
X054666Y000682D01*
X054691Y000692D01*
X054718Y000699D01*
X054745Y000702D01*
X054773Y000701D01*
X054800Y000696D01*
X054826Y000688D01*
X054850Y000676D01*
X054873Y000660D01*
X054894Y000642D01*
X054911Y000621D01*
X054926Y000597D01*
X054937Y000572D01*
X054945Y000546D01*
X054949Y000519D01*
X054949Y000491D01*
X054945Y000464D01*
X054937Y000438D01*
X054926Y000413D01*
X054911Y000389D01*
X054894Y000368D01*
X054873Y000350D01*
X054851Y000334D01*
X054826Y000322D01*
X054800Y000314D01*
X054773Y000309D01*
X054745Y000308D01*
X054718Y000311D01*
X054691Y000318D01*
X054666Y000328D01*
X054642Y000342D01*
X054620Y000359D01*
X054601Y000378D01*
X054585Y000401D01*
X054572Y000425D01*
X054563Y000451D01*
X054557Y000478D01*
X054555Y000505D01*
D11*
X025886Y006294D03*
X024036Y006294D03*
X022397Y008961D03*
X020547Y008961D03*
X008453Y025249D03*
X006602Y025249D03*
X010165Y030623D03*
X012016Y030623D03*
D12*
X024066Y018938D03*
X024893Y018938D03*
X024873Y018129D03*
X024046Y018129D03*
X024066Y017320D03*
X024893Y017320D03*
X042269Y020590D03*
X043095Y020590D03*
D13*
X015798Y008490D03*
D14*
X018672Y007592D03*
X018672Y009388D03*
D15*
X018652Y009400D03*
X018652Y008490D03*
X018652Y007580D03*
D16*
X016212Y008490D03*
D17*
X019833Y007286D02*
X019833Y007136D01*
X019833Y007286D02*
X019905Y007286D01*
X019905Y007136D01*
X019833Y007136D01*
X020533Y007136D02*
X020533Y007286D01*
X020605Y007286D01*
X020605Y007136D01*
X020533Y007136D01*
X027446Y010715D02*
X027518Y010715D01*
X027446Y010715D02*
X027446Y010865D01*
X027518Y010865D01*
X027518Y010715D01*
X028146Y010715D02*
X028218Y010715D01*
X028146Y010715D02*
X028146Y010865D01*
X028218Y010865D01*
X028218Y010715D01*
X031657Y011154D02*
X031657Y011226D01*
X031657Y011154D02*
X031507Y011154D01*
X031507Y011226D01*
X031657Y011226D01*
X032357Y011226D02*
X032357Y011154D01*
X032357Y011226D02*
X032507Y011226D01*
X032507Y011154D01*
X032357Y011154D01*
X032357Y011854D02*
X032357Y011926D01*
X032507Y011926D01*
X032507Y011854D01*
X032357Y011854D01*
X031657Y011854D02*
X031657Y011926D01*
X031657Y011854D02*
X031507Y011854D01*
X031507Y011926D01*
X031657Y011926D01*
X027506Y014042D02*
X027506Y014192D01*
X027578Y014192D01*
X027578Y014042D01*
X027506Y014042D01*
X026806Y014042D02*
X026806Y014192D01*
X026878Y014192D01*
X026878Y014042D01*
X026806Y014042D01*
X025924Y013728D02*
X025924Y013578D01*
X025852Y013578D01*
X025852Y013728D01*
X025924Y013728D01*
X025224Y013728D02*
X025224Y013578D01*
X025152Y013578D01*
X025152Y013728D01*
X025224Y013728D01*
X025337Y015591D02*
X025409Y015591D01*
X025337Y015591D02*
X025337Y015741D01*
X025409Y015741D01*
X025409Y015591D01*
X026037Y015591D02*
X026109Y015591D01*
X026037Y015591D02*
X026037Y015741D01*
X026109Y015741D01*
X026109Y015591D01*
X026313Y016411D02*
X026385Y016411D01*
X026313Y016411D02*
X026313Y016561D01*
X026385Y016561D01*
X026385Y016411D01*
X025685Y016411D02*
X025613Y016411D01*
X025613Y016561D01*
X025685Y016561D01*
X025685Y016411D01*
X025665Y017434D02*
X025593Y017434D01*
X025665Y017434D02*
X025665Y017284D01*
X025593Y017284D01*
X025593Y017434D01*
X026293Y017434D02*
X026365Y017434D01*
X026365Y017284D01*
X026293Y017284D01*
X026293Y017434D01*
X026293Y018272D02*
X026365Y018272D01*
X026365Y018122D01*
X026293Y018122D01*
X026293Y018272D01*
X025665Y018272D02*
X025593Y018272D01*
X025665Y018272D02*
X025665Y018122D01*
X025593Y018122D01*
X025593Y018272D01*
X025583Y018922D02*
X025655Y018922D01*
X025583Y018922D02*
X025583Y019072D01*
X025655Y019072D01*
X025655Y018922D01*
X026283Y018922D02*
X026355Y018922D01*
X026283Y018922D02*
X026283Y019072D01*
X026355Y019072D01*
X026355Y018922D01*
X030312Y017641D02*
X030312Y017491D01*
X030312Y017641D02*
X030384Y017641D01*
X030384Y017491D01*
X030312Y017491D01*
X031012Y017491D02*
X031012Y017641D01*
X031084Y017641D01*
X031084Y017491D01*
X031012Y017491D01*
X037818Y021015D02*
X037818Y021165D01*
X037818Y021015D02*
X037746Y021015D01*
X037746Y021165D01*
X037818Y021165D01*
X038518Y021165D02*
X038518Y021015D01*
X038446Y021015D01*
X038446Y021165D01*
X038518Y021165D01*
X042357Y019726D02*
X042357Y019654D01*
X042357Y019726D02*
X042507Y019726D01*
X042507Y019654D01*
X042357Y019654D01*
X042357Y019026D02*
X042357Y018954D01*
X042357Y019026D02*
X042507Y019026D01*
X042507Y018954D01*
X042357Y018954D01*
X044359Y018954D02*
X044359Y019026D01*
X044359Y018954D02*
X044209Y018954D01*
X044209Y019026D01*
X044359Y019026D01*
X044359Y019654D02*
X044359Y019726D01*
X044359Y019654D02*
X044209Y019654D01*
X044209Y019726D01*
X044359Y019726D01*
X045498Y019726D02*
X045498Y019654D01*
X045348Y019654D01*
X045348Y019726D01*
X045498Y019726D01*
X045498Y019026D02*
X045498Y018954D01*
X045348Y018954D01*
X045348Y019026D01*
X045498Y019026D01*
X046173Y027009D02*
X046173Y027081D01*
X046323Y027081D01*
X046323Y027009D01*
X046173Y027009D01*
X046173Y027709D02*
X046173Y027781D01*
X046323Y027781D01*
X046323Y027709D01*
X046173Y027709D01*
X047079Y027689D02*
X047229Y027689D01*
X047079Y027689D02*
X047079Y027761D01*
X047229Y027761D01*
X047229Y027689D01*
X047229Y026989D02*
X047079Y026989D01*
X047079Y027061D01*
X047229Y027061D01*
X047229Y026989D01*
X048004Y026989D02*
X048004Y027061D01*
X048154Y027061D01*
X048154Y026989D01*
X048004Y026989D01*
X048004Y027689D02*
X048004Y027761D01*
X048154Y027761D01*
X048154Y027689D01*
X048004Y027689D01*
X042028Y027910D02*
X041956Y027910D01*
X041956Y028060D01*
X042028Y028060D01*
X042028Y027910D01*
X041328Y027910D02*
X041256Y027910D01*
X041256Y028060D01*
X041328Y028060D01*
X041328Y027910D01*
X041488Y029095D02*
X041488Y029167D01*
X041638Y029167D01*
X041638Y029095D01*
X041488Y029095D01*
X041488Y029795D02*
X041488Y029867D01*
X041638Y029867D01*
X041638Y029795D01*
X041488Y029795D01*
X041387Y033028D02*
X041387Y033178D01*
X041387Y033028D02*
X041315Y033028D01*
X041315Y033178D01*
X041387Y033178D01*
X042087Y033178D02*
X042087Y033028D01*
X042015Y033028D01*
X042015Y033178D01*
X042087Y033178D01*
X042177Y034017D02*
X042177Y034089D01*
X042327Y034089D01*
X042327Y034017D01*
X042177Y034017D01*
X041500Y034095D02*
X041500Y034167D01*
X041500Y034095D02*
X041350Y034095D01*
X041350Y034167D01*
X041500Y034167D01*
X041500Y034795D02*
X041500Y034867D01*
X041500Y034795D02*
X041350Y034795D01*
X041350Y034867D01*
X041500Y034867D01*
X041350Y035296D02*
X041350Y035368D01*
X041500Y035368D01*
X041500Y035296D01*
X041350Y035296D01*
X042216Y035276D02*
X042366Y035276D01*
X042216Y035276D02*
X042216Y035348D01*
X042366Y035348D01*
X042366Y035276D01*
X042177Y034789D02*
X042177Y034717D01*
X042177Y034789D02*
X042327Y034789D01*
X042327Y034717D01*
X042177Y034717D01*
X043023Y034336D02*
X043023Y034264D01*
X043023Y034336D02*
X043173Y034336D01*
X043173Y034264D01*
X043023Y034264D01*
X043023Y033636D02*
X043023Y033564D01*
X043023Y033636D02*
X043173Y033636D01*
X043173Y033564D01*
X043023Y033564D01*
X040394Y035706D02*
X040322Y035706D01*
X040322Y035856D01*
X040394Y035856D01*
X040394Y035706D01*
X039694Y035706D02*
X039622Y035706D01*
X039622Y035856D01*
X039694Y035856D01*
X039694Y035706D01*
X041350Y035996D02*
X041350Y036068D01*
X041500Y036068D01*
X041500Y035996D01*
X041350Y035996D01*
X042216Y035976D02*
X042366Y035976D01*
X042216Y035976D02*
X042216Y036048D01*
X042366Y036048D01*
X042366Y035976D01*
X039272Y033973D02*
X039200Y033973D01*
X039200Y034123D01*
X039272Y034123D01*
X039272Y033973D01*
X038572Y033973D02*
X038500Y033973D01*
X038500Y034123D01*
X038572Y034123D01*
X038572Y033973D01*
X038747Y033237D02*
X038747Y033087D01*
X038747Y033237D02*
X038819Y033237D01*
X038819Y033087D01*
X038747Y033087D01*
X038047Y033087D02*
X038047Y033237D01*
X038119Y033237D01*
X038119Y033087D01*
X038047Y033087D01*
X038535Y037967D02*
X038685Y037967D01*
X038685Y037895D01*
X038535Y037895D01*
X038535Y037967D01*
X038535Y038667D02*
X038685Y038667D01*
X038685Y038595D01*
X038535Y038595D01*
X038535Y038667D01*
X036004Y027352D02*
X035932Y027352D01*
X036004Y027352D02*
X036004Y027202D01*
X035932Y027202D01*
X035932Y027352D01*
X035304Y027352D02*
X035232Y027352D01*
X035304Y027352D02*
X035304Y027202D01*
X035232Y027202D01*
X035232Y027352D01*
X027018Y024315D02*
X027018Y024165D01*
X026946Y024165D01*
X026946Y024315D01*
X027018Y024315D01*
X026318Y024315D02*
X026318Y024165D01*
X026246Y024165D01*
X026246Y024315D01*
X026318Y024315D01*
X018928Y021340D02*
X018928Y021268D01*
X018778Y021268D01*
X018778Y021340D01*
X018928Y021340D01*
X018928Y020640D02*
X018928Y020568D01*
X018778Y020568D01*
X018778Y020640D01*
X018928Y020640D01*
X017878Y019474D02*
X017878Y019402D01*
X017728Y019402D01*
X017728Y019474D01*
X017878Y019474D01*
X017071Y019362D02*
X016921Y019362D01*
X016921Y019434D01*
X017071Y019434D01*
X017071Y019362D01*
X017071Y018662D02*
X016921Y018662D01*
X016921Y018734D01*
X017071Y018734D01*
X017071Y018662D01*
X017878Y018702D02*
X017878Y018774D01*
X017878Y018702D02*
X017728Y018702D01*
X017728Y018774D01*
X017878Y018774D01*
X018408Y018750D02*
X018408Y018900D01*
X018480Y018900D01*
X018480Y018750D01*
X018408Y018750D01*
X019108Y018750D02*
X019108Y018900D01*
X019180Y018900D01*
X019180Y018750D01*
X019108Y018750D01*
X018032Y018100D02*
X017960Y018100D01*
X018032Y018100D02*
X018032Y017950D01*
X017960Y017950D01*
X017960Y018100D01*
X017332Y018100D02*
X017260Y018100D01*
X017332Y018100D02*
X017332Y017950D01*
X017260Y017950D01*
X017260Y018100D01*
X016364Y018229D02*
X016292Y018229D01*
X016292Y018379D01*
X016364Y018379D01*
X016364Y018229D01*
X015664Y018229D02*
X015592Y018229D01*
X015592Y018379D01*
X015664Y018379D01*
X015664Y018229D01*
X015755Y017020D02*
X015755Y016948D01*
X015755Y017020D02*
X015905Y017020D01*
X015905Y016948D01*
X015755Y016948D01*
X015755Y016320D02*
X015755Y016248D01*
X015755Y016320D02*
X015905Y016320D01*
X015905Y016248D01*
X015755Y016248D01*
X014862Y015398D02*
X014862Y015248D01*
X014790Y015248D01*
X014790Y015398D01*
X014862Y015398D01*
X014162Y015398D02*
X014162Y015248D01*
X014090Y015248D01*
X014090Y015398D01*
X014162Y015398D01*
X013373Y015567D02*
X013373Y015639D01*
X013523Y015639D01*
X013523Y015567D01*
X013373Y015567D01*
X013373Y014939D02*
X013373Y014867D01*
X013373Y014939D02*
X013523Y014939D01*
X013523Y014867D01*
X013373Y014867D01*
X013019Y014165D02*
X012947Y014165D01*
X012947Y014315D01*
X013019Y014315D01*
X013019Y014165D01*
X012319Y014165D02*
X012247Y014165D01*
X012247Y014315D01*
X012319Y014315D01*
X012319Y014165D01*
X012094Y013474D02*
X012094Y013324D01*
X012094Y013474D02*
X012166Y013474D01*
X012166Y013324D01*
X012094Y013324D01*
X012706Y013304D02*
X012706Y013454D01*
X012706Y013304D02*
X012634Y013304D01*
X012634Y013454D01*
X012706Y013454D01*
X013406Y013454D02*
X013406Y013304D01*
X013334Y013304D01*
X013334Y013454D01*
X013406Y013454D01*
X012767Y012513D02*
X012767Y012441D01*
X012767Y012513D02*
X012917Y012513D01*
X012917Y012441D01*
X012767Y012441D01*
X012767Y011813D02*
X012767Y011741D01*
X012767Y011813D02*
X012917Y011813D01*
X012917Y011741D01*
X012767Y011741D01*
X011936Y011740D02*
X011936Y011812D01*
X012086Y011812D01*
X012086Y011740D01*
X011936Y011740D01*
X011936Y012440D02*
X011936Y012512D01*
X012086Y012512D01*
X012086Y012440D01*
X011936Y012440D01*
X011394Y013324D02*
X011394Y013474D01*
X011466Y013474D01*
X011466Y013324D01*
X011394Y013324D01*
X009532Y014942D02*
X009382Y014942D01*
X009382Y015014D01*
X009532Y015014D01*
X009532Y014942D01*
X009532Y015642D02*
X009382Y015642D01*
X009382Y015714D01*
X009532Y015714D01*
X009532Y015642D01*
X008831Y018938D02*
X008831Y019010D01*
X008981Y019010D01*
X008981Y018938D01*
X008831Y018938D01*
X008831Y019638D02*
X008831Y019710D01*
X008981Y019710D01*
X008981Y019638D01*
X008831Y019638D01*
X009543Y019584D02*
X009615Y019584D01*
X009543Y019584D02*
X009543Y019734D01*
X009615Y019734D01*
X009615Y019584D01*
X010243Y019584D02*
X010315Y019584D01*
X010243Y019584D02*
X010243Y019734D01*
X010315Y019734D01*
X010315Y019584D01*
X010878Y019710D02*
X011028Y019710D01*
X011028Y019638D01*
X010878Y019638D01*
X010878Y019710D01*
X010878Y019010D02*
X011028Y019010D01*
X011028Y018938D01*
X010878Y018938D01*
X010878Y019010D01*
X010937Y020395D02*
X011087Y020395D01*
X010937Y020395D02*
X010937Y020467D01*
X011087Y020467D01*
X011087Y020395D01*
X010374Y020391D02*
X010302Y020391D01*
X010302Y020541D01*
X010374Y020541D01*
X010374Y020391D01*
X009674Y020391D02*
X009602Y020391D01*
X009602Y020541D01*
X009674Y020541D01*
X009674Y020391D01*
X009059Y020375D02*
X009059Y020447D01*
X009059Y020375D02*
X008909Y020375D01*
X008909Y020447D01*
X009059Y020447D01*
X009059Y021075D02*
X009059Y021147D01*
X009059Y021075D02*
X008909Y021075D01*
X008909Y021147D01*
X009059Y021147D01*
X010937Y021095D02*
X011087Y021095D01*
X010937Y021095D02*
X010937Y021167D01*
X011087Y021167D01*
X011087Y021095D01*
X011958Y021080D02*
X011958Y021230D01*
X011958Y021080D02*
X011886Y021080D01*
X011886Y021230D01*
X011958Y021230D01*
X012658Y021230D02*
X012658Y021080D01*
X012586Y021080D01*
X012586Y021230D01*
X012658Y021230D01*
X013220Y021410D02*
X013220Y021482D01*
X013370Y021482D01*
X013370Y021410D01*
X013220Y021410D01*
X014047Y021136D02*
X014047Y021064D01*
X014047Y021136D02*
X014197Y021136D01*
X014197Y021064D01*
X014047Y021064D01*
X014832Y021198D02*
X014832Y021348D01*
X014832Y021198D02*
X014760Y021198D01*
X014760Y021348D01*
X014832Y021348D01*
X015532Y021348D02*
X015532Y021198D01*
X015460Y021198D01*
X015460Y021348D01*
X015532Y021348D01*
X016138Y021808D02*
X016138Y021958D01*
X016210Y021958D01*
X016210Y021808D01*
X016138Y021808D01*
X016838Y021808D02*
X016838Y021958D01*
X016910Y021958D01*
X016910Y021808D01*
X016838Y021808D01*
X016134Y022639D02*
X016134Y022711D01*
X016284Y022711D01*
X016284Y022639D01*
X016134Y022639D01*
X016134Y023339D02*
X016134Y023411D01*
X016284Y023411D01*
X016284Y023339D01*
X016134Y023339D01*
X015327Y023437D02*
X015327Y023509D01*
X015477Y023509D01*
X015477Y023437D01*
X015327Y023437D01*
X015327Y022809D02*
X015327Y022737D01*
X015327Y022809D02*
X015477Y022809D01*
X015477Y022737D01*
X015327Y022737D01*
X014272Y022713D02*
X014200Y022713D01*
X014200Y022863D01*
X014272Y022863D01*
X014272Y022713D01*
X013572Y022713D02*
X013500Y022713D01*
X013500Y022863D01*
X013572Y022863D01*
X013572Y022713D01*
X013071Y022293D02*
X012999Y022293D01*
X013071Y022293D02*
X013071Y022143D01*
X012999Y022143D01*
X012999Y022293D01*
X012371Y022293D02*
X012299Y022293D01*
X012371Y022293D02*
X012371Y022143D01*
X012299Y022143D01*
X012299Y022293D01*
X014047Y021836D02*
X014047Y021764D01*
X014047Y021836D02*
X014197Y021836D01*
X014197Y021764D01*
X014047Y021764D01*
X013220Y020782D02*
X013220Y020710D01*
X013220Y020782D02*
X013370Y020782D01*
X013370Y020710D01*
X013220Y020710D01*
X013933Y020521D02*
X013933Y020371D01*
X013933Y020521D02*
X014005Y020521D01*
X014005Y020371D01*
X013933Y020371D01*
X014633Y020371D02*
X014633Y020521D01*
X014705Y020521D01*
X014705Y020371D01*
X014633Y020371D01*
X017240Y017293D02*
X017312Y017293D01*
X017312Y017143D01*
X017240Y017143D01*
X017240Y017293D01*
X017229Y016600D02*
X017079Y016600D01*
X017229Y016600D02*
X017229Y016528D01*
X017079Y016528D01*
X017079Y016600D01*
X017079Y015900D02*
X017229Y015900D01*
X017229Y015828D01*
X017079Y015828D01*
X017079Y015900D01*
X017905Y015880D02*
X017905Y015808D01*
X017905Y015880D02*
X018055Y015880D01*
X018055Y015808D01*
X017905Y015808D01*
X017905Y016508D02*
X017905Y016580D01*
X018055Y016580D01*
X018055Y016508D01*
X017905Y016508D01*
X017940Y017293D02*
X018012Y017293D01*
X018012Y017143D01*
X017940Y017143D01*
X017940Y017293D01*
X019278Y016256D02*
X019278Y016184D01*
X019278Y016256D02*
X019428Y016256D01*
X019428Y016184D01*
X019278Y016184D01*
X019278Y015556D02*
X019278Y015484D01*
X019278Y015556D02*
X019428Y015556D01*
X019428Y015484D01*
X019278Y015484D01*
X021374Y015576D02*
X021524Y015576D01*
X021374Y015576D02*
X021374Y015648D01*
X021524Y015648D01*
X021524Y015576D01*
X021524Y014876D02*
X021374Y014876D01*
X021374Y014948D01*
X021524Y014948D01*
X021524Y014876D01*
X020240Y012800D02*
X020168Y012800D01*
X020168Y012950D01*
X020240Y012950D01*
X020240Y012800D01*
X019540Y012800D02*
X019468Y012800D01*
X019468Y012950D01*
X019540Y012950D01*
X019540Y012800D01*
X014667Y013615D02*
X014517Y013615D01*
X014667Y013615D02*
X014667Y013543D01*
X014517Y013543D01*
X014517Y013615D01*
X014517Y014315D02*
X014667Y014315D01*
X014667Y014243D01*
X014517Y014243D01*
X014517Y014315D01*
X014602Y024222D02*
X014674Y024222D01*
X014674Y024072D01*
X014602Y024072D01*
X014602Y024222D01*
X015302Y024222D02*
X015374Y024222D01*
X015374Y024072D01*
X015302Y024072D01*
X015302Y024222D01*
X016157Y024072D02*
X016229Y024072D01*
X016157Y024072D02*
X016157Y024222D01*
X016229Y024222D01*
X016229Y024072D01*
X016857Y024072D02*
X016929Y024072D01*
X016857Y024072D02*
X016857Y024222D01*
X016929Y024222D01*
X016929Y024072D01*
X029897Y007953D02*
X029897Y007803D01*
X029825Y007803D01*
X029825Y007953D01*
X029897Y007953D01*
X030597Y007953D02*
X030597Y007803D01*
X030525Y007803D01*
X030525Y007953D01*
X030597Y007953D01*
D18*
X031782Y014388D03*
X031782Y014585D03*
X031782Y014782D03*
X031782Y014978D03*
X031782Y015175D03*
X031782Y015372D03*
X031782Y015569D03*
X031782Y015766D03*
X031782Y015963D03*
X031782Y016159D03*
X031782Y016356D03*
X031782Y016553D03*
X031782Y016750D03*
X031782Y016947D03*
X031782Y017144D03*
X031782Y017341D03*
X031782Y017537D03*
X031782Y017734D03*
X031782Y017931D03*
X031782Y018128D03*
X031782Y018325D03*
X031782Y018522D03*
X031782Y018719D03*
X031782Y018915D03*
X031782Y019112D03*
X038081Y019112D03*
X038081Y018915D03*
X038081Y018719D03*
X038081Y018522D03*
X038081Y018325D03*
X038081Y018128D03*
X038081Y017931D03*
X038081Y017734D03*
X038081Y017537D03*
X038081Y017341D03*
X038081Y017144D03*
X038081Y016947D03*
X038081Y016750D03*
X038081Y016553D03*
X038081Y016356D03*
X038081Y016159D03*
X038081Y015963D03*
X038081Y015766D03*
X038081Y015569D03*
X038081Y015372D03*
X038081Y015175D03*
X038081Y014978D03*
X038081Y014782D03*
X038081Y014585D03*
X038081Y014388D03*
D19*
X037294Y013600D03*
X037097Y013600D03*
X036900Y013600D03*
X036704Y013600D03*
X036507Y013600D03*
X036310Y013600D03*
X036113Y013600D03*
X035916Y013600D03*
X035719Y013600D03*
X035522Y013600D03*
X035326Y013600D03*
X035129Y013600D03*
X034932Y013600D03*
X034735Y013600D03*
X034538Y013600D03*
X034341Y013600D03*
X034144Y013600D03*
X033948Y013600D03*
X033751Y013600D03*
X033554Y013600D03*
X033357Y013600D03*
X033160Y013600D03*
X032963Y013600D03*
X032767Y013600D03*
X032570Y013600D03*
X032570Y019900D03*
X032767Y019900D03*
X032963Y019900D03*
X033160Y019900D03*
X033357Y019900D03*
X033554Y019900D03*
X033751Y019900D03*
X033948Y019900D03*
X034144Y019900D03*
X034341Y019900D03*
X034538Y019900D03*
X034735Y019900D03*
X034932Y019900D03*
X035129Y019900D03*
X035326Y019900D03*
X035522Y019900D03*
X035719Y019900D03*
X035916Y019900D03*
X036113Y019900D03*
X036310Y019900D03*
X036507Y019900D03*
X036704Y019900D03*
X036900Y019900D03*
X037097Y019900D03*
X037294Y019900D03*
D20*
X027531Y013047D03*
X026931Y013047D03*
D21*
X025752Y012816D02*
X025204Y012816D01*
X025752Y012816D02*
X025752Y012348D01*
X025204Y012348D01*
X025204Y012816D01*
X025204Y012430D02*
X025752Y012430D01*
X025752Y012512D02*
X025204Y012512D01*
X025204Y012594D02*
X025752Y012594D01*
X025752Y012676D02*
X025204Y012676D01*
X025204Y012758D02*
X025752Y012758D01*
X025752Y011930D02*
X025204Y011930D01*
X025752Y011930D02*
X025752Y011462D01*
X025204Y011462D01*
X025204Y011930D01*
X025204Y011544D02*
X025752Y011544D01*
X025752Y011626D02*
X025204Y011626D01*
X025204Y011708D02*
X025752Y011708D01*
X025752Y011790D02*
X025204Y011790D01*
X025204Y011872D02*
X025752Y011872D01*
X025752Y011044D02*
X025204Y011044D01*
X025752Y011044D02*
X025752Y010576D01*
X025204Y010576D01*
X025204Y011044D01*
X025204Y010658D02*
X025752Y010658D01*
X025752Y010740D02*
X025204Y010740D01*
X025204Y010822D02*
X025752Y010822D01*
X025752Y010904D02*
X025204Y010904D01*
X025204Y010986D02*
X025752Y010986D01*
X022445Y011044D02*
X021897Y011044D01*
X022445Y011044D02*
X022445Y010576D01*
X021897Y010576D01*
X021897Y011044D01*
X021897Y010658D02*
X022445Y010658D01*
X022445Y010740D02*
X021897Y010740D01*
X021897Y010822D02*
X022445Y010822D01*
X022445Y010904D02*
X021897Y010904D01*
X021897Y010986D02*
X022445Y010986D01*
X022445Y012816D02*
X021897Y012816D01*
X022445Y012816D02*
X022445Y012348D01*
X021897Y012348D01*
X021897Y012816D01*
X021897Y012430D02*
X022445Y012430D01*
X022445Y012512D02*
X021897Y012512D01*
X021897Y012594D02*
X022445Y012594D01*
X022445Y012676D02*
X021897Y012676D01*
X021897Y012758D02*
X022445Y012758D01*
D22*
X016206Y013921D03*
X015832Y013921D03*
X015458Y013921D03*
X015458Y014945D03*
X016206Y014945D03*
D23*
X014536Y016184D03*
X014221Y016184D03*
X013906Y016184D03*
X013591Y016184D03*
X013276Y016184D03*
X012961Y016184D03*
X012646Y016184D03*
X012331Y016184D03*
X012331Y019564D03*
X012646Y019564D03*
X012961Y019564D03*
X013276Y019564D03*
X013591Y019564D03*
X013906Y019564D03*
X014221Y019564D03*
X014536Y019564D03*
X020265Y019672D03*
X020580Y019672D03*
X020894Y019672D03*
X021209Y019672D03*
X021524Y019672D03*
X021839Y019672D03*
X022154Y019672D03*
X022469Y019672D03*
X022469Y016292D03*
X022154Y016292D03*
X021839Y016292D03*
X021524Y016292D03*
X021209Y016292D03*
X020894Y016292D03*
X020580Y016292D03*
X020265Y016292D03*
D24*
X019677Y016879D03*
X019677Y017194D03*
X019677Y017509D03*
X019677Y017824D03*
X019677Y018139D03*
X019677Y018454D03*
X019677Y018769D03*
X019677Y019084D03*
X023057Y019084D03*
X023057Y018769D03*
X023057Y018454D03*
X023057Y018139D03*
X023057Y017824D03*
X023057Y017509D03*
X023057Y017194D03*
X023057Y016879D03*
X015123Y016772D03*
X015123Y017086D03*
X015123Y017401D03*
X015123Y017716D03*
X015123Y018031D03*
X015123Y018346D03*
X015123Y018661D03*
X015123Y018976D03*
X011743Y018976D03*
X011743Y018661D03*
X011743Y018346D03*
X011743Y018031D03*
X011743Y017716D03*
X011743Y017401D03*
X011743Y017086D03*
X011743Y016772D03*
D25*
X010926Y022412D03*
X010926Y022668D03*
X010926Y022924D03*
X010926Y023180D03*
X009272Y023180D03*
X009272Y022924D03*
X009272Y022668D03*
X009272Y022412D03*
D26*
X010138Y022796D03*
D27*
X010148Y033997D03*
X009158Y033997D03*
X008378Y033997D03*
X007388Y033997D03*
D28*
X039919Y033277D03*
X040175Y033277D03*
X040431Y033277D03*
X040687Y033277D03*
X040687Y034977D03*
X040431Y034977D03*
X040175Y034977D03*
X039919Y034977D03*
D29*
X038855Y034974D03*
X037735Y034974D03*
D30*
X049083Y036205D03*
X049083Y037325D03*
D31*
X041701Y027099D03*
X040559Y027099D03*
D32*
X040500Y028162D03*
X040500Y029777D03*
X039417Y037257D03*
X039417Y038871D03*
D33*
X048591Y034206D03*
X049457Y034580D03*
X049457Y033832D03*
D34*
X039130Y035722D03*
X039130Y036096D03*
X039130Y036470D03*
X038209Y036470D03*
X038209Y036096D03*
X038209Y035722D03*
D35*
X041484Y036824D03*
X041484Y039029D03*
D36*
X015717Y012080D03*
X015717Y010505D03*
D37*
X057114Y023531D03*
X057114Y025590D03*
X057272Y018031D03*
X057272Y015972D03*
D38*
X037154Y037218D03*
X037154Y038832D03*
X034929Y038832D03*
X034929Y037218D03*
D39*
X035283Y035938D03*
X036898Y035938D03*
X036898Y033812D03*
X035283Y033812D03*
X042843Y030269D03*
X044457Y030269D03*
X044457Y028064D03*
X042843Y028064D03*
D40*
X010417Y017808D03*
X008417Y017808D03*
X008417Y016155D03*
X010417Y016155D03*
D41*
X005886Y029027D03*
X005886Y030017D03*
X005886Y030797D03*
X005886Y031787D03*
D42*
X036976Y031017D03*
X038591Y031017D03*
D43*
X051917Y034383D03*
X051917Y037729D03*
D44*
X020500Y014324D03*
X019909Y014324D03*
X019319Y014324D03*
D45*
X030421Y012119D03*
X030421Y011529D03*
X030421Y010938D03*
D46*
X052685Y028615D03*
X056031Y028615D03*
D47*
X048531Y020546D03*
X048531Y020046D03*
X048531Y019546D03*
X048531Y019046D03*
X046484Y019046D03*
X046484Y019546D03*
X046484Y020046D03*
X046484Y020546D03*
M02*
